<?xml version="1.0" ?><svg id="Layer_1" style="enable-background:new 0 0 512 512;" version="1.1" viewBox="0 0 512 512" xml:space="preserve" xmlns="http://www.w3.org/2000/svg" xmlns:xlink="http://www.w3.org/1999/xlink"><style type="text/css">
	.st0{fill:none;stroke:#000000;stroke-width:12;stroke-linecap:round;stroke-linejoin:round;stroke-miterlimit:10;}
</style><g><path class="st0" d="M120.2,165.6c0.4-5,0.9-10.1,1.3-15.1c0.1-1.1,0.1-2.3,0.3-3.4c1-7,4.9-10.5,12.1-10.6c13.4-0.1,26.7,0,40.1,0   c1.5,0,3,0,4.6,0c0.6-11.9,2.9-22.9,8.2-33.1c12.4-23.8,31.8-37.8,58.2-42.2c1.1-0.2,2.2-0.5,3.3-0.8c5.1,0,10.2,0,15.3,0   c5.5,1.3,11.2,2.2,16.6,4c31.1,10.7,50.8,36.8,52.9,69.7c0,0.6,0.2,1.2,0.3,2.4c1.4,0,2.8,0,4.1,0c13.2,0,26.5,0,39.7,0   c8.2,0,12.2,3.6,13,11.7c2.7,30,5.3,60.1,7.9,90.1c2.7,30.8,5.5,61.5,8.3,92.3"/><path class="st0" d="M409.6,364.3c1.1,11.2,2.2,22.5,2.7,33.8c0.8,18-7.7,31.8-22,42.1c-11.3,8.1-24.2,11.4-38.1,11.4   c-31.3,0-62.6,0-93.9,0"/><path class="st0" d="M233.2,451.5c-0.4,0,0.9,0,0.5,0"/><path class="st0" d="M212.3,451.5c-3.4,0-6.8,0-10.2,0c-15.7,0-31.3,0.5-47-0.2c-19.8-0.8-36.1-9-47.6-25.6   c-7.9-11.4-8.7-24.2-7.3-37.6c2.9-27.7,5.1-55.5,7.5-83.3c2.4-27.3,4.9-54.5,7.3-81.8c0.9-9.9,1.8-19.7,2.6-29.6"/><path class="st0" d="M284,197.9c-0.3,0.2-0.5,0.4-0.8,0.6c-19.5,14.4-39.2,13.3-57.9-2.7c-15.9-13.8-24-34.1-25-59.6   c4.5,0,4,0,8.5,0 M303.8,136.2c0.6,0,7.3,0,7.9,0c-0.8,15.8-4.1,29.5-10.1,40.8"/></g></svg>